<?xml version="1.0" encoding="UTF-8" standalone="no"?>
<svg
   viewBox="0 0 432.07551 985.11333"
   height="260.64456mm"
   width="114.31998mm"
   version="1.1"
   id="svg3336"
   xmlns="http://www.w3.org/2000/svg"
   xmlns:svg="http://www.w3.org/2000/svg"
   xmlns:rdf="http://www.w3.org/1999/02/22-rdf-syntax-ns#"
   xmlns:cc="http://creativecommons.org/ns#"
   xmlns:dc="http://purl.org/dc/elements/1.1/">
  <metadata
     id="metadata3342">
    <rdf:RDF>
      <cc:Work
         rdf:about="">
        <dc:format>image/svg+xml</dc:format>
        <dc:type
           rdf:resource="http://purl.org/dc/dcmitype/StillImage" />
      </cc:Work>
    </rdf:RDF>
  </metadata>
  <defs
     id="defs3340" />
  <path
     id="path42-4"
     style="fill:none;fill-rule:evenodd;stroke:#000000;stroke-width:0.90059px;stroke-linecap:butt;stroke-linejoin:miter;stroke-opacity:1"
     d="m 214.65106,0.46067393 c -8.66273,0.12202 -17.67726,2.81030897 -24.875,7.53124997 -9.52228,6.2455721 -15.48626,15.3094821 -18.7168,25.2851521 -3.10253,9.58034 0.32813,30.20704 0.32813,30.20703 0,0 -3.65622,-2.92607 -5.91016,-1.64062 -5.52182,3.14915 -2.984,11.43562 -1.96875,17.07422 1.15365,6.40729 2.60773,15.60564 8.86523,17.40234 1.84027,0.52839 4.92579,-2.95508 4.92579,-2.95508 0,0 -1.37371,6.13757 -0.98633,9.195324 0.47013,3.71098 4.19379,8.73669 4.26953,12.47656 0.28243,13.93819 1.1197,29.51331 -7.22461,33.49219 -11.42423,5.4475 -16.63999,7.68266 -26.26758,11.16406 -11.32456,4.09504 -21.63389,2.66736 -31.52344,6.89648 -11.52758,4.92962 -21.157483,10.82024 -28.894533,20.68555 -8.41956,10.73557 -13.33829,23.15048 -14.44726,38.08984 -0.71375,9.61527 0.0234,19.34608 -1.31446,28.89454 -1.84179,13.14557 -9.48897,17.69762 -9.19336,38.74609 0.15373,10.94631 -0.65625,32.83594 -0.65625,32.83594 0,0 -14.29289,31.11009 -13.79101,56.47656 0.65394,33.05204 -8.20899,98.83594 -8.20899,98.83594 0,0 -9.2572,6.41992 -13.13476,10.50781 -3.60457,3.80009 -8.53711,11.82031 -8.53711,11.82031 0,0 -13.8207997,13.82872 -15.7617197,23.64258 -0.50476,2.55221 -2.18165999,6.01432 -0.32812,7.87891 2.16197,2.17485 7.63318,2.31194 9.1933597,-0.32813 5.62056,-9.51089 13.13476,-15.10351 13.13476,-15.10351 0,0 -1.25535,25.08825 0.32813,45.96875 0.50277,6.62967 0.48625,16.95208 6.89648,18.71679 2.96072,1.38778 4.57776,-9.24762 5.45313,-19.66406 -0.23215,12.54363 0.50826,27.04964 5.05468,28.5293 4.07106,1.32494 6.89453,-10.83399 6.89453,-10.83399 l 1.97071,-41.70312 c 0,0 0.11975,27.76964 0.73632,40.58984 0.13952,2.90079 0.59951,8.38084 5.15626,7.02344 4.60176,-1.84272 5.1939,-6.32436 5.58203,-9.79492 1.90947,-17.0739 2.60909,-40.01321 3.30078,-38.80274 0,0 0.72967,22.33079 0.98437,33.16407 0.0464,1.97262 2.9571,3.41626 4.92578,3.2832 2.4758,-0.16734 5.83475,-2.45723 5.58204,-4.92578 -1.41655,-13.83641 0.32812,-34.80469 0.32812,-34.80469 0,0 3.67274,-18.36333 2.95508,-27.58203 -0.36062,-4.63222 -3.04456,-8.85136 -3.61133,-13.46289 -0.76115,-6.19313 -0.74398,-12.56986 0.32813,-18.7168 4.90634,-28.13058 21.61618,-53.17844 27.582033,-81.10351 4.17993,-19.56548 1.81152,-40.11128 5.58203,-59.75977 2.55863,-13.33319 11.49219,-39.07422 11.49218,-39.07422 0,0 11.04831,28.68225 14.11915,43.66992 2.40471,11.73656 3.5526,23.81364 3.28515,35.79102 -0.18004,8.06262 -3.07147,15.90892 -3.28515,23.9707 -0.17461,6.58757 0.64807,14.82656 -0.32813,21.34375 -1.3097,8.74371 -6.54932,14.99513 -7.88086,22.98438 -1.1696,7.01759 0.72103,14.266 0,21.34375 -1.92533,18.89929 -9.00263,36.98704 -11.49219,55.82031 -2.39966,18.15332 -2.26985,36.54779 -1.3125,54.83398 1.29355,24.70766 8.62724,48.63105 10.17969,73.22461 0.57235,9.06714 0.20918,18.18474 -0.33008,27.25391 -0.36591,6.15353 -1.96875,18.38672 -1.96875,18.38672 l 1.3125,17.07422 c 0,0 -8.43476,30.62701 -8.20898,46.29882 0.58287,40.4589 18.99758,78.79563 24.62695,118.86524 0.6108,4.3477 0.98438,13.13476 0.98438,13.13476 0,0 -3.11378,6.16819 -3.28321,9.52149 -0.19291,3.8181 2.62696,11.16406 2.62696,11.16406 l 0.65625,15.43357 c 0,0 -9.00522,14.9876 -12.47657,22.9844 -1.51604,3.4925 -3.31352,7.0403 -3.61132,10.8359 -0.36454,4.6462 0.0664,9.6992 2.29687,13.7911 0.77875,1.4287 3.61328,3.2832 3.61328,3.2832 0,0 -0.33341,2.0429 0.32813,2.6269 1.31286,1.159 5.2539,0 5.2539,0 0,0 1.27741,1.9372 2.29883,2.2988 1.97118,0.6979 6.23828,-0.6562 6.23828,-0.6562 0,0 3.11716,2.4034 4.92578,2.2969 2.6986,-0.159 6.89454,-4.2676 6.89454,-4.2676 0,0 2.47045,4.1839 4.59765,4.5976 3.85137,0.7491 8.15535,-1.7326 10.83594,-4.5976 1.82098,-1.9463 1.67615,-5.0627 2.62695,-7.5527 1.52275,-3.9878 4.34481,-8.091 4.92383,-11.8204 0.97813,-6.3001 -3.50694,-14.6195 -3.93945,-18.7168 -0.93415,-8.8495 2.29883,-26.5957 2.29883,-26.5957 0,0 4.42511,-11.00858 3.2832,-14.44918 -2.40472,-7.2454 -5.58203,-17.40235 -5.58203,-17.40234 0,0 -3.43661,-20.95838 -3.28321,-31.52149 0.37198,-25.61584 9.9964,-50.40791 10.17774,-76.17969 0.11807,-16.7797 -8.84598,-38.4019 -5.58203,-50.23828 9.38906,-34.04853 9.85156,-49.58203 9.85156,-49.58203 0,0 6.05097,-11.05406 5.91016,-24.29883 -0.23839,-22.42186 7.88086,-45.64062 7.88086,-45.64062 l 12.80664,-50.56641 1.3125,-13.46289 -0.65625,-12.47852 1.88867,-0.041 2.05078,0.041 -0.65625,12.47852 1.31445,13.46289 12.80469,50.56641 c 0,0 8.11925,23.22072 7.88086,45.64258 -0.14081,13.24477 5.91016,24.29687 5.91016,24.29687 0,0 0.4625,15.53351 9.85156,49.58203 3.26395,11.83639 -5.7001,33.45859 -5.58203,50.23828 0.18134,25.77178 9.80575,50.56385 10.17773,76.17969 0.1534,10.56311 -3.2832,31.52149 -3.2832,31.52149 0,0 -3.17731,10.15694 -5.58203,17.40234 -1.14191,3.4406 3.2832,14.44918 3.2832,14.44918 0,0 3.23298,17.7462 2.29883,26.5957 -0.43251,4.0973 -4.91759,12.4167 -3.93945,18.7168 0.57902,3.7294 3.40107,7.8326 4.92382,11.8204 0.9508,2.49 0.80598,5.6064 2.62696,7.5527 2.68059,2.865 6.98457,5.3467 10.83593,4.5976 2.12721,-0.4137 4.59766,-4.5976 4.59766,-4.5976 0,0 4.19593,4.1086 6.89453,4.2676 1.80862,0.1065 4.92578,-2.2969 4.92578,-2.2969 0,0 4.2671,1.3541 6.23828,0.6562 1.02142,-0.3616 2.29883,-2.2988 2.29883,-2.2988 0,0 3.94105,1.159 5.25391,0 0.66153,-0.584 0.32812,-2.6269 0.32812,-2.6269 0,0 2.83453,-1.8545 3.61328,-3.2832 2.23048,-4.0919 2.66142,-9.1449 2.29688,-13.7911 -0.2978,-3.7956 -2.09529,-7.3434 -3.61133,-10.8359 -3.47135,-7.9968 -12.47656,-22.9844 -12.47656,-22.9844 l 0.65625,-15.43357 c 0,0 2.81986,-7.34596 2.62695,-11.16406 -0.16943,-3.3533 -3.2832,-9.52149 -3.2832,-9.52149 0,0 0.37356,-8.78706 0.98437,-13.13476 5.62936,-40.06961 24.04409,-78.40635 24.62696,-118.86524 0.22578,-15.67182 -8.20899,-46.29882 -8.20899,-46.29882 l 1.3125,-17.07422 c 0,0 -1.60285,-12.23319 -1.96875,-18.38672 -0.53926,-9.06917 -0.90047,-18.18677 -0.32812,-27.25391 1.55244,-24.59356 8.88419,-48.51696 10.17773,-73.22461 0.95736,-18.28619 1.08717,-36.68066 -1.3125,-54.83398 -2.48955,-18.83327 -9.56687,-36.92103 -11.49219,-55.82031 -0.72103,-7.07775 1.16959,-14.32616 0,-21.34375 -1.33154,-7.98925 -6.57115,-14.24067 -7.88086,-22.98438 -0.9762,-6.51719 -0.15351,-14.75618 -0.32812,-21.34375 -0.21368,-8.06179 -3.10512,-15.90808 -3.28516,-23.9707 -0.26745,-11.97739 0.88045,-24.05446 3.28516,-35.79102 3.07084,-14.98767 14.11914,-43.66992 14.11914,-43.66992 0,0 8.93357,25.74103 11.49219,39.07422 3.77052,19.64848 1.4021,40.19429 5.58203,59.75977 4.98235,23.32152 17.45318,44.63829 24.28906,67.41796 0.004,0.0118 0.008,0.0233 0.0117,0.0352 1.33344,4.4498 2.46725,8.9523 3.26758,13.54102 1.07211,6.14694 1.08927,12.52366 0.32812,18.71679 -0.56677,4.61153 -3.2507,8.83067 -3.61132,13.46289 -0.71766,9.2187 2.95507,27.58203 2.95507,27.58203 0,0 1.74468,20.96828 0.32813,34.80469 -0.25271,2.46855 3.10623,4.75844 5.58203,4.92578 1.96868,0.13306 4.87938,-1.31058 4.92578,-3.2832 0.2547,-10.83327 0.98438,-33.16406 0.98438,-33.16406 0.69169,-1.21047 1.39131,21.72883 3.30078,38.80273 0.38813,3.47056 0.98027,7.9522 5.58203,9.79492 4.55675,1.3574 5.01673,-4.12264 5.15625,-7.02343 0.61657,-12.8202 0.73633,-40.58985 0.73633,-40.58985 l 1.9707,41.70313 c 0,0 2.82347,12.15892 6.89453,10.83398 4.54642,-1.47966 5.28684,-15.98566 5.05469,-28.5293 0.87537,10.41644 2.4924,21.05185 5.45312,19.66407 6.41023,-1.76471 6.39372,-12.08713 6.89649,-18.7168 1.58348,-20.8805 0.32812,-45.96875 0.32812,-45.96875 0,0 7.51421,5.59263 13.13477,15.10352 1.56018,2.64007 7.03139,2.50297 9.19336,0.32812 1.85354,-1.86459 0.17663,-5.3267 -0.32813,-7.8789 -1.94092,-9.81387 -15.76172,-23.64258 -15.76172,-23.64258 0,0 -4.93254,-8.02023 -8.53711,-11.82032 -3.87756,-4.08789 -13.13476,-10.50781 -13.13476,-10.50781 0,0 -1.0425,-7.92004 -2.33984,-18.97656 -2.57577,-21.97118 -6.28894,-57.84173 -5.85547,-79.75 0.50188,-25.36647 -13.79102,-56.47656 -13.79102,-56.47656 0,0 -0.80998,-21.88963 -0.65625,-32.83594 0.29561,-21.04847 -7.35157,-25.60052 -9.19336,-38.74609 -1.33781,-9.54846 -0.6007,-19.27927 -1.31445,-28.89454 -1.10897,-14.93936 -6.02771,-27.35427 -14.44727,-38.08984 -7.73706,-9.86532 -17.36694,-15.75593 -28.89453,-20.68555 -9.88954,-4.22912 -20.19888,-2.80145 -31.52344,-6.89648 -9.62759,-3.4814 -14.84334,-5.71656 -26.26757,-11.16406 -8.34431,-3.97888 -7.50705,-19.55401 -7.22461,-33.49219 0.0757,-3.73987 3.7994,-8.76559 4.26953,-12.47656 0.38738,-3.057754 -0.98438,-9.195324 -0.98438,-9.195324 0,0 3.08356,3.48347 4.92383,2.95508 6.2575,-1.7967 7.71158,-10.99505 8.86524,-17.40234 1.01525,-5.63861 3.55307,-13.92508 -1.96875,-17.07422 -2.25394,-1.28545 -5.91016,1.64062 -5.91016,1.64062 0,0 3.43065,-20.62669 0.32812,-30.20703 -3.23054,-9.97567 -9.19451,-19.03958 -18.71679,-25.2851521 -7.19774,-4.72094 -18.1068,-7.66583097 -27.66211,-7.53124997 z" />
  <path
     id="Triceps-2"
     style="fill:#ff0000;stroke:#000000;stroke-width:1px;stroke-linecap:butt;stroke-linejoin:miter;stroke-opacity:1"
     d="m 320.70764,298.23225 c -0.68077,18.71768 4.15256,46.09201 9.8939,68.51321 5.98628,19.24802 23.93213,37.9945 40.65287,23.06233 12.77949,-17.12084 3.4904,-39.66818 -0.80316,-58.20777 -6.62954,-15.66279 -12.85198,-40.48009 -34.6637,-38.22145 -5.48304,0.17265 -11.41204,0.48 -15.07991,4.85368 z" />
  <path
     id="Triceps-1"
     style="fill:#ff0000;stroke:#000000;stroke-width:1px;stroke-linecap:butt;stroke-linejoin:miter;stroke-opacity:1"
     d="m 110.79693,299.05436 c 0.68077,18.71768 -4.15256,46.09201 -9.8939,68.51321 -5.986283,19.24802 -23.932133,37.9945 -40.652873,23.06233 -12.77949,-17.12084 -3.4904,-39.66818 0.80316,-58.20777 6.62954,-15.66279 12.85198,-40.48009 34.6637,-38.22145 5.483043,0.17265 11.412043,0.48 15.079913,4.85368 z" />
  <path
     style="fill:#ff0000;stroke:#000000;stroke-width:1px;stroke-linecap:butt;stroke-linejoin:miter;stroke-opacity:1"
     d="m 129.83792,736.59066 c -7.71368,19.88365 -4.99877,41.77758 -0.69146,62.10205 2.77384,13.91016 6.6116,27.70457 7.86755,41.85254 0.1837,9.74988 5.44794,19.13383 12.81151,25.34538 3.41291,3.10524 9.5298,4.26403 12.54553,-0.0167 3.20498,-3.9446 4.06412,-9.06676 3.55203,-13.98738 -0.12889,-28.34207 6.54908,-56.30181 5.62671,-84.662 -1.90966,-12.84402 -9.65653,-25.19911 -21.16402,-31.49099 -6.40773,-3.46263 -14.48021,-3.28712 -20.54785,0.85706 z"
     id="Calves-1" />
  <path
     style="fill:#ff0000;stroke:#000000;stroke-width:1px;stroke-linecap:butt;stroke-linejoin:miter;stroke-opacity:1"
     d="m 301.21792,737.07138 c 7.71368,19.88365 4.99877,41.77758 0.69146,62.10205 -2.77384,13.91016 -6.6116,27.70457 -7.86755,41.85254 -0.1837,9.74988 -5.44794,19.13383 -12.81151,25.34538 -3.41291,3.10524 -9.5298,4.26403 -12.54553,-0.0167 -3.20498,-3.9446 -4.06412,-9.06676 -3.55203,-13.98738 0.12889,-28.34207 -6.54908,-56.30181 -5.62671,-84.662 1.90966,-12.84402 9.65653,-25.19911 21.16402,-31.49099 6.40773,-3.46263 14.48021,-3.28712 20.54785,0.85706 z"
     id="Calves-2" />
  <path
     style="fill:#ff0000;stroke:#000000;stroke-width:1px;stroke-linecap:butt;stroke-linejoin:miter;stroke-opacity:1"
     d="m 122.76084,194.24297 c -0.81188,18.91065 19.98069,70.29828 20.58546,107.0259 3.78304,20.74535 8.65963,43.96696 26.36314,57.53597 16.02998,12.57948 37.73375,11.50912 56.64765,7.88624 10.9289,-2.27728 22.04315,-3.71131 32.94281,-5.98663 15.66012,-5.44413 20.86169,-22.9877 23.88873,-37.62923 3.86178,-18.68359 4.36223,-37.85839 7.86138,-56.62231 3.58739,-23.30377 7.5981,-46.64446 8.2116,-70.2667 -3.90507,-15.15266 -20.73682,-20.64798 -34.70437,-21.26466 -25.35992,-0.88604 -50.78188,-0.89055 -76.15147,-0.1794 -19.20864,1.05288 -38.33818,1.39904 -56.36997,6.44064 -4.47984,0.65269 -8.22367,5.11933 -9.27496,13.06018 z"
     id="UpperBack-1" />
  <path
     style="fill:#ff0000;stroke:#000000;stroke-width:0.723993px;stroke-linecap:butt;stroke-linejoin:miter;stroke-opacity:1"
     d="m 180.78114,380.81965 c -4.30612,16.74668 -1.62895,34.33679 -5.82983,51.10537 -1.14125,8.33559 4.72264,15.62884 10.8735,20.71179 2.39447,2.42031 5.56947,3.67091 8.91565,4.28046 10.21507,2.26644 20.76561,0.89873 31.10456,1.98388 9.88331,-1.26144 20.46097,0.065 29.57094,-4.64845 4.98676,-7.82623 1.79571,-17.22077 1.42436,-25.7343 -1.40599,-13.14088 -3.61333,-26.2604 -3.5038,-39.5144 -0.24708,-5.17267 -5.99299,-7.32646 -10.58619,-6.25214 -4.66472,0.52614 -9.35264,1.70251 -14.05208,0.97381 -14.79691,0.69303 -29.41341,-2.2247 -44.08347,-3.4305 -1.30253,0.0241 -2.56381,0.2618 -3.83364,0.52448 z"
     id="LowerBack-1" />
  <path
     style="fill:#ff0000;stroke:#000000;stroke-width:0.845201px;stroke-linecap:butt;stroke-linejoin:miter;stroke-opacity:1"
     d="m 150.21698,382.63303 c -1.06119,11.85259 -3.57493,23.57248 -6.39043,35.24676 -1.14679,9.58219 -1.82891,19.2442 -4.85915,28.63287 -1.29271,8.50851 21.59101,13.59574 23.17071,3.86102 -0.15158,-7.38271 1.29772,-14.58981 2.77196,-21.88687 1.35969,-14.1064 4.89877,-28.16401 4.39951,-42.31163 0.0691,-7.92643 -14.01208,-11.78911 -19.0926,-3.54215 z"
     id="QL-1" />
  <path
     style="fill:#ff0000;stroke:#000000;stroke-width:0.845201px;stroke-linecap:butt;stroke-linejoin:miter;stroke-opacity:1"
     d="m 281.03375,382.39673 c 1.06119,11.85258 3.57493,23.57248 6.39043,35.24675 1.14679,9.58219 1.82891,19.2442 4.85915,28.63288 1.29271,8.50851 -21.59101,13.59574 -23.17071,3.86101 0.15158,-7.3827 -1.29772,-14.5898 -2.77196,-21.88686 -1.35969,-14.10641 -4.89877,-28.16401 -4.39951,-42.31164 -0.0691,-7.92643 14.01208,-11.7891 19.0926,-3.54214 z"
     id="QL-2" />
  <path
     style="fill:#ff0000;stroke:#000000;stroke-width:0.920546px;stroke-linecap:butt;stroke-linejoin:miter;stroke-opacity:1"
     d="m 277.11327,468.32769 c -4.24001,1.05164 -6.21742,4.26046 -6.9367,8.82845 -1.68589,7.00247 1.39419,14.22965 5.84649,18.77909 3.33188,3.67358 6.82067,7.17578 10.06127,10.94295 3.58348,2.97468 18.36233,35.16973 22.55145,32.01292 2.79208,-3.31808 0.40557,-28.70395 0.008,-33.56919 0.16687,-11.22768 -3.51679,-25.0293 -6.54509,-32.88998 -3.13881,-5.81836 -9.67935,-5.6182 -14.83588,-5.37578 -3.01795,-0.0793 -7.01565,1.05611 -10.14965,1.27154 z"
     id="GluteusMedius-2" />
  <path
     style="fill:#ff0000;stroke:#000000;stroke-width:0.905899px;stroke-linecap:butt;stroke-linejoin:miter;stroke-opacity:1"
     d="m 220.10058,474.91369 c -1.39062,15.80098 2.48448,31.55683 3.68641,47.17059 5.46993,12.09457 6.57115,27.01049 13.12708,37.93128 8.56296,6.48044 19.96385,5.45934 29.35748,2.33228 8.35146,-5.79369 23.98132,2.08386 28.61531,-10.65205 3.41455,-9.79464 -0.0441,-22.17324 -7.94949,-30.06914 -6.47002,-6.73908 -14.81494,-26.09844 -24.1124,-34.6309 -5.37711,-13.08647 -21.03103,-18.1919 -35.66127,-13.31095 -2.37829,0.13082 -4.75924,0.47548 -7.06312,1.22889 z"
     id="GluteusMaximus-2" />
  <path
     style="fill:#ff0000;stroke:#000000;stroke-width:0.905899px;stroke-linecap:butt;stroke-linejoin:miter;stroke-opacity:1"
     d="m 211.37046,473.66548 c 1.39062,15.80098 -2.48448,31.55683 -3.68641,47.17059 -5.46993,12.09457 -6.57115,27.01049 -13.12708,37.93128 -8.56296,6.48044 -19.96385,5.45934 -29.35748,2.33228 -8.35146,-5.79369 -23.98132,2.08386 -28.61531,-10.65205 -3.41455,-9.79464 0.0441,-22.17324 7.94949,-30.06914 6.47002,-6.73908 14.81494,-26.09844 24.1124,-34.6309 5.37711,-13.08647 21.03103,-18.1919 35.66127,-13.31095 2.37829,0.13082 4.75924,0.47548 7.06312,1.22889 z"
     id="GluteusMaximus-1" />
  <path
     style="fill:#ff0000;stroke:#000000;stroke-width:0.920546px;stroke-linecap:butt;stroke-linejoin:miter;stroke-opacity:1"
     d="m 155.39778,464.11832 c 4.24001,1.05164 6.21742,4.26046 6.9367,8.82845 1.68589,7.00247 -1.39419,14.22965 -5.84649,18.77909 -3.33188,3.67358 -6.82067,7.17578 -10.06127,10.94295 -3.58348,2.97468 -18.36233,35.16973 -22.55145,32.01292 -2.79208,-3.31808 -0.40557,-28.70395 -0.008,-33.56919 -0.16687,-11.22768 3.51679,-25.0293 6.54509,-32.88998 3.13881,-5.81836 9.67935,-5.6182 14.83588,-5.37578 3.01795,-0.0793 7.01565,1.05611 10.14965,1.27154 z"
     id="GluteusMedius-1" />
  <path
     style="fill:#ff0000;stroke:#000000;stroke-width:1px;stroke-linecap:butt;stroke-linejoin:miter;stroke-opacity:1"
     d="m 134.89915,580.21794 c 1.64526,19.97665 7.19242,40.0758 1.3978,59.9616 -0.53451,15.89018 -9.24215,36.13106 0.0607,49.61542 11.39824,3.78689 35.56942,11.60963 37.30846,-6.96445 -0.94132,-19.82318 0.37472,-39.67648 3.15354,-59.35352 -1.17429,-12.92442 10.62176,-28.18642 -1.47419,-38.24944 -11.77596,-10.06717 -27.82086,1.92841 -40.44635,-5.00961 z"
     id="Hamstrings-1" />
  <path
     style="fill:#ff0000;stroke:#000000;stroke-width:1px;stroke-linecap:butt;stroke-linejoin:miter;stroke-opacity:1"
     d="m 295.47317,577.16988 c -1.64526,19.97665 -7.19242,40.0758 -1.3978,59.9616 0.53451,15.89018 9.24215,36.13106 -0.0607,49.61542 -11.39824,3.78689 -35.56942,11.60963 -37.30846,-6.96445 0.94132,-19.82318 -0.37472,-39.67648 -3.15354,-59.35352 1.17429,-12.92442 -10.62176,-28.18642 1.47419,-38.24944 11.77596,-10.06717 27.82086,1.92841 40.44635,-5.00961 z"
     id="Hamstrings-2" />
</svg>
