<?xml version="1.0" encoding="UTF-8" standalone="no"?>
<svg
   viewBox="0 0 432.07557 985.10732"
   height="260.64297mm"
   width="114.31999mm"
   version="1.1"
   id="svg3336"
   xmlns="http://www.w3.org/2000/svg"
   xmlns:svg="http://www.w3.org/2000/svg"
   xmlns:rdf="http://www.w3.org/1999/02/22-rdf-syntax-ns#"
   xmlns:cc="http://creativecommons.org/ns#"
   xmlns:dc="http://purl.org/dc/elements/1.1/">
  <metadata
     id="metadata3342">
    <rdf:RDF>
      <cc:Work
         rdf:about="">
        <dc:format>image/svg+xml</dc:format>
        <dc:type
           rdf:resource="http://purl.org/dc/dcmitype/StillImage" />
      </cc:Work>
    </rdf:RDF>
  </metadata>
  <defs
     id="defs3340" />
  <path
     id="path42-4"
     style="fill:none;fill-rule:evenodd;stroke:#000000;stroke-width:0.90059px;stroke-linecap:butt;stroke-linejoin:miter;stroke-opacity:1"
     d="m 214.65106,0.45475267 c -8.66273,0.12202 -17.67726,2.81030903 -24.875,7.53125003 -9.52228,6.2455723 -15.48626,15.3094823 -18.7168,25.2851523 -3.10253,9.58034 0.32813,30.20704 0.32813,30.20703 0,0 -3.65622,-2.92607 -5.91016,-1.64062 -5.52182,3.14915 -2.984,11.43562 -1.96875,17.07422 1.15365,6.40729 2.60773,15.60564 8.86523,17.40234 1.84027,0.52839 4.92579,-2.95508 4.92579,-2.95508 0,0 -1.37371,6.13757 -0.98633,9.195315 0.47013,3.71098 4.19379,8.73669 4.26953,12.47656 0.28243,13.93819 1.1197,29.51331 -7.22461,33.49219 -11.42423,5.4475 -16.63999,7.68266 -26.26758,11.16406 -11.32456,4.09504 -21.63389,2.66736 -31.52344,6.89648 -11.52758,4.92962 -21.157481,10.82024 -28.894531,20.68555 -8.41956,10.73557 -13.33829,23.15048 -14.44726,38.08984 -0.71375,9.61527 0.0234,19.34608 -1.31446,28.89454 -1.84179,13.14557 -9.48897,17.69762 -9.19336,38.74609 0.15373,10.94631 -0.65625,32.83594 -0.65625,32.83594 0,0 -14.29289,31.11009 -13.79101,56.47656 0.65394,33.05204 -8.20899,98.83594 -8.20899,98.83594 0,0 -9.2572,6.41992 -13.13476,10.50781 -3.60457,3.80009 -8.53711,11.82031 -8.53711,11.82031 0,0 -13.8207998,13.82872 -15.7617198,23.64258 -0.50476,2.55221 -2.18166,6.01432 -0.32812,7.87891 2.16197,2.17485 7.63318,2.31194 9.1933598,-0.32813 5.62056,-9.51089 13.13476,-15.10351 13.13476,-15.10351 0,0 -1.25535,25.08825 0.32813,45.96875 0.50277,6.62967 0.48625,16.95208 6.89648,18.71679 2.96072,1.38778 4.57776,-9.24762 5.45313,-19.66406 -0.23215,12.54363 0.50826,27.04964 5.05468,28.5293 4.07106,1.32494 6.89453,-10.83399 6.89453,-10.83399 l 1.97071,-41.70312 c 0,0 0.11975,27.76964 0.73632,40.58984 0.13952,2.90079 0.59951,8.38084 5.15626,7.02344 4.60176,-1.84272 5.1939,-6.32436 5.58203,-9.79492 1.90947,-17.0739 2.60909,-40.01321 3.30078,-38.80274 0,0 0.72967,22.33079 0.98437,33.16407 0.0464,1.97262 2.9571,3.41626 4.92578,3.2832 2.4758,-0.16734 5.83475,-2.45723 5.58204,-4.92578 -1.41655,-13.83641 0.32812,-34.80469 0.32812,-34.80469 0,0 3.67274,-18.36333 2.95508,-27.58203 -0.36062,-4.63222 -3.04456,-8.85136 -3.61133,-13.46289 -0.76115,-6.19313 -0.74398,-12.56986 0.32813,-18.7168 4.90634,-28.13058 21.61618,-53.17844 27.582031,-81.10351 4.17993,-19.56548 1.81152,-40.11128 5.58203,-59.75977 2.55863,-13.33319 11.49219,-39.07422 11.49218,-39.07422 0,0 11.04831,28.68225 14.11915,43.66992 2.40471,11.73656 3.5526,23.81364 3.28515,35.79102 -0.18004,8.06262 -3.07147,15.90892 -3.28515,23.9707 -0.17461,6.58757 0.64807,14.82656 -0.32813,21.34375 -1.3097,8.74371 -6.54932,14.99513 -7.88086,22.98438 -1.1696,7.01759 0.72103,14.266 0,21.34375 -1.92533,18.89929 -9.00263,36.98704 -11.49219,55.82031 -2.39966,18.15332 -2.26985,36.54779 -1.3125,54.83398 1.29355,24.70766 8.62724,48.63105 10.17969,73.22461 0.57235,9.06714 0.20918,18.18474 -0.33008,27.25391 -0.36591,6.15353 -1.96875,18.38672 -1.96875,18.38672 l 1.3125,17.07422 c 0,0 -8.43476,30.62701 -8.20898,46.29882 0.58287,40.4589 18.99758,78.79563 24.62695,118.86524 0.6108,4.3477 0.98438,13.13476 0.98438,13.13476 0,0 -3.11378,6.16819 -3.28321,9.52149 -0.19291,3.8181 2.62696,11.16406 2.62696,11.16406 l 0.65625,15.43357 c 0,0 -9.00522,14.9876 -12.47657,22.9844 -1.51604,3.4925 -3.31352,7.0403 -3.61132,10.8359 -0.36454,4.6462 0.0664,9.6992 2.29687,13.7911 0.77875,1.4287 3.61328,3.2832 3.61328,3.2832 0,0 -0.33341,2.0429 0.32813,2.6269 1.31286,1.159 5.2539,0 5.2539,0 0,0 1.27741,1.9372 2.29883,2.2988 1.97118,0.6979 6.23828,-0.6562 6.23828,-0.6562 0,0 3.11716,2.4034 4.92578,2.2969 2.6986,-0.159 6.89454,-4.2676 6.89454,-4.2676 0,0 2.47045,4.1839 4.59765,4.5976 3.85137,0.7491 8.15535,-1.7326 10.83594,-4.5976 1.82098,-1.9463 1.67615,-5.0627 2.62695,-7.5527 1.52275,-3.9878 4.34481,-8.091 4.92383,-11.8204 0.97813,-6.3001 -3.50694,-14.6195 -3.93945,-18.7168 -0.93415,-8.8495 2.29883,-26.5957 2.29883,-26.5957 0,0 4.42511,-11.00858 3.2832,-14.44918 -2.40472,-7.2454 -5.58203,-17.40235 -5.58203,-17.40234 0,0 -3.43661,-20.95838 -3.28321,-31.52149 0.37198,-25.61584 9.9964,-50.40791 10.17774,-76.17969 0.11807,-16.7797 -8.84598,-38.4019 -5.58203,-50.23828 9.38906,-34.04853 9.85156,-49.58203 9.85156,-49.58203 0,0 6.05097,-11.05406 5.91016,-24.29883 -0.23839,-22.42186 7.88086,-45.64062 7.88086,-45.64062 l 12.80664,-50.56641 1.3125,-13.46289 -0.65625,-12.47852 1.88867,-0.041 2.05078,0.041 -0.65625,12.47852 1.31445,13.46289 12.80469,50.56641 c 0,0 8.11925,23.22072 7.88086,45.64258 -0.14081,13.24477 5.91016,24.29687 5.91016,24.29687 0,0 0.4625,15.53351 9.85156,49.58203 3.26395,11.83639 -5.7001,33.45859 -5.58203,50.23828 0.18134,25.77178 9.80575,50.56385 10.17773,76.17969 0.1534,10.56311 -3.2832,31.52149 -3.2832,31.52149 0,0 -3.17731,10.15694 -5.58203,17.40234 -1.14191,3.4406 3.2832,14.44918 3.2832,14.44918 0,0 3.23298,17.7462 2.29883,26.5957 -0.43251,4.0973 -4.91759,12.4167 -3.93945,18.7168 0.57902,3.7294 3.40107,7.8326 4.92382,11.8204 0.9508,2.49 0.80598,5.6064 2.62696,7.5527 2.68059,2.865 6.98457,5.3467 10.83593,4.5976 2.12721,-0.4137 4.59766,-4.5976 4.59766,-4.5976 0,0 4.19593,4.1086 6.89453,4.2676 1.80862,0.1065 4.92578,-2.2969 4.92578,-2.2969 0,0 4.2671,1.3541 6.23828,0.6562 1.02142,-0.3616 2.29883,-2.2988 2.29883,-2.2988 0,0 3.94105,1.159 5.25391,0 0.66153,-0.584 0.32812,-2.6269 0.32812,-2.6269 0,0 2.83453,-1.8545 3.61328,-3.2832 2.23048,-4.0919 2.66142,-9.1449 2.29688,-13.7911 -0.2978,-3.7956 -2.09529,-7.3434 -3.61133,-10.8359 -3.47135,-7.9968 -12.47656,-22.9844 -12.47656,-22.9844 l 0.65625,-15.43357 c 0,0 2.81986,-7.34596 2.62695,-11.16406 -0.16943,-3.3533 -3.2832,-9.52149 -3.2832,-9.52149 0,0 0.37356,-8.78706 0.98437,-13.13476 5.62936,-40.06961 24.04409,-78.40635 24.62696,-118.86524 0.22578,-15.67182 -8.20899,-46.29882 -8.20899,-46.29882 l 1.3125,-17.07422 c 0,0 -1.60285,-12.23319 -1.96875,-18.38672 -0.53926,-9.06917 -0.90047,-18.18677 -0.32812,-27.25391 1.55244,-24.59356 8.88419,-48.51696 10.17773,-73.22461 0.95736,-18.28619 1.08717,-36.68066 -1.3125,-54.83398 -2.48955,-18.83327 -9.56687,-36.92103 -11.49219,-55.82031 -0.72103,-7.07775 1.16959,-14.32616 0,-21.34375 -1.33154,-7.98925 -6.57115,-14.24067 -7.88086,-22.98438 -0.9762,-6.51719 -0.15351,-14.75618 -0.32812,-21.34375 -0.21368,-8.06179 -3.10512,-15.90808 -3.28516,-23.9707 -0.26745,-11.97739 0.88045,-24.05446 3.28516,-35.79102 3.07084,-14.98767 14.11914,-43.66992 14.11914,-43.66992 0,0 8.93357,25.74103 11.49219,39.07422 3.77052,19.64848 1.4021,40.19429 5.58203,59.75977 4.98235,23.32152 17.45318,44.63829 24.28906,67.41796 0.004,0.0118 0.008,0.0233 0.0117,0.0352 1.33344,4.4498 2.46725,8.9523 3.26758,13.54102 1.07211,6.14694 1.08927,12.52366 0.32812,18.71679 -0.56677,4.61153 -3.2507,8.83067 -3.61132,13.46289 -0.71766,9.2187 2.95507,27.58203 2.95507,27.58203 0,0 1.74468,20.96828 0.32813,34.80469 -0.25271,2.46855 3.10623,4.75844 5.58203,4.92578 1.96868,0.13306 4.87938,-1.31058 4.92578,-3.2832 0.2547,-10.83327 0.98438,-33.16406 0.98438,-33.16406 0.69169,-1.21047 1.39131,21.72883 3.30078,38.80273 0.38813,3.47056 0.98027,7.9522 5.58203,9.79492 4.55675,1.3574 5.01673,-4.12264 5.15625,-7.02343 0.61657,-12.8202 0.73633,-40.58985 0.73633,-40.58985 l 1.9707,41.70313 c 0,0 2.82347,12.15892 6.89453,10.83398 4.54642,-1.47966 5.28684,-15.98566 5.05469,-28.5293 0.87537,10.41644 2.4924,21.05185 5.45312,19.66407 6.41023,-1.76471 6.39372,-12.08713 6.89649,-18.7168 1.58348,-20.8805 0.32812,-45.96875 0.32812,-45.96875 0,0 7.51421,5.59263 13.13477,15.10352 1.56018,2.64007 7.03139,2.50297 9.19336,0.32812 1.85354,-1.86459 0.17663,-5.3267 -0.32813,-7.8789 -1.94092,-9.81387 -15.76172,-23.64258 -15.76172,-23.64258 0,0 -4.93254,-8.02023 -8.53711,-11.82032 -3.87756,-4.08789 -13.13476,-10.50781 -13.13476,-10.50781 0,0 -1.0425,-7.92004 -2.33984,-18.97656 -2.57577,-21.97118 -6.28894,-57.84173 -5.85547,-79.75 0.50188,-25.36647 -13.79102,-56.47656 -13.79102,-56.47656 0,0 -0.80998,-21.88963 -0.65625,-32.83594 0.29561,-21.04847 -7.35157,-25.60052 -9.19336,-38.74609 -1.33781,-9.54846 -0.6007,-19.27927 -1.31445,-28.89454 -1.10897,-14.93936 -6.02771,-27.35427 -14.44727,-38.08984 -7.73706,-9.86532 -17.36694,-15.75593 -28.89453,-20.68555 -9.88954,-4.22912 -20.19888,-2.80145 -31.52344,-6.89648 -9.62759,-3.4814 -14.84334,-5.71656 -26.26757,-11.16406 -8.34431,-3.97888 -7.50705,-19.55401 -7.22461,-33.49219 0.0757,-3.73987 3.7994,-8.76559 4.26953,-12.47656 0.38738,-3.057745 -0.98438,-9.195315 -0.98438,-9.195315 0,0 3.08356,3.48347 4.92383,2.95508 6.2575,-1.7967 7.71158,-10.99505 8.86524,-17.40234 1.01525,-5.63861 3.55307,-13.92508 -1.96875,-17.07422 -2.25394,-1.28545 -5.91016,1.64062 -5.91016,1.64062 0,0 3.43065,-20.62669 0.32812,-30.20703 -3.23054,-9.97567 -9.19451,-19.03958 -18.71679,-25.2851523 -7.19774,-4.72094 -18.1068,-7.66583103 -27.66211,-7.53125003 z" />
  <path
     style="fill:#ff0000;stroke:#000000;stroke-width:1px;stroke-linecap:butt;stroke-linejoin:miter;stroke-opacity:1"
     d="m 183.60763,98.299025 c -1.44818,11.520755 -1.11756,26.762235 -0.53891,39.733975 5.01649,12.1147 20.46989,7.17145 30.6237,8.05333 10.01626,0.12736 32.91647,5.00427 32.61517,-10.34841 2.63167,-9.96462 2.1078,-22.61803 -1.4486,-33.85134 -6.25578,-9.806275 -20.28256,-4.518465 -30.04207,-5.536745 -12.41208,0.25014 -28.89885,-0.96499 -31.20929,1.94919 z"
     id="Neck" />
  <path
     id="Biceps-2"
     style="fill:#ff0000;stroke:#000000;stroke-width:1px;stroke-linecap:butt;stroke-linejoin:miter;stroke-opacity:1"
     d="m 320.70764,298.22632 c -0.68077,18.71768 4.15256,46.09201 9.8939,68.51321 5.98628,19.24802 23.93213,37.9945 40.65287,23.06233 12.77949,-17.12084 3.4904,-39.66818 -0.80316,-58.20777 -6.62954,-15.66279 -12.85198,-40.48009 -34.6637,-38.22145 -5.48304,0.17265 -11.41204,0.48 -15.07991,4.85368 z" />
  <path
     id="Biceps-1"
     style="fill:#ff0000;stroke:#000000;stroke-width:1px;stroke-linecap:butt;stroke-linejoin:miter;stroke-opacity:1"
     d="m 110.79693,299.04843 c 0.68077,18.71768 -4.15256,46.09201 -9.8939,68.51321 -5.986281,19.24802 -23.932131,37.9945 -40.652871,23.06233 -12.77949,-17.12084 -3.4904,-39.66818 0.80316,-58.20777 6.62954,-15.66279 12.85198,-40.48009 34.6637,-38.22145 5.483041,0.17265 11.412041,0.48 15.079911,4.85368 z" />
  <path
     style="fill:#ff0000;stroke:#000000;stroke-width:1px;stroke-linecap:butt;stroke-linejoin:miter;stroke-opacity:1"
     d="m 57.613959,400.74996 c -10.73124,6.73018 -12.53526,45.24669 -13.18408,68.72414 -1.33572,9.37427 0.76199,19.35191 10.08138,19.50468 6.11732,0.20664 13.79385,-1.6541 16.82173,-7.50377 3.26566,-7.80947 -0.0482,-16.69918 3.45299,-24.50762 2.72318,-8.84066 6.73117,-17.19274 9.70074,-25.94177 3.07152,-9.15292 3.08412,-21.04669 -4.98134,-27.70079 -5.97514,-4.56857 -15.08998,-6.20651 -21.89142,-2.57487 z"
     id="WristFlexors-1" />
  <path
     style="fill:#ff0000;stroke:#000000;stroke-width:1px;stroke-linecap:butt;stroke-linejoin:miter;stroke-opacity:1"
     d="m 373.96841,400.31331 c 10.73124,6.73018 12.53526,45.24669 13.18408,68.72414 1.33572,9.37427 -0.76199,19.35191 -10.08138,19.50468 -6.11732,0.20664 -13.79385,-1.6541 -16.82173,-7.50377 -3.26566,-7.80947 0.0482,-16.69918 -3.45299,-24.50762 -2.72318,-8.84066 -6.73117,-17.19274 -9.70074,-25.94177 -3.07152,-9.15292 -3.08412,-21.04669 4.98134,-27.70079 5.97514,-4.56857 15.08998,-6.20651 21.89142,-2.57487 z"
     id="WristFlexors-2" />
  <path
     style="fill:#ff0000;stroke:#000000;stroke-width:1px;stroke-linecap:butt;stroke-linejoin:miter;stroke-opacity:1"
     d="m 176.1871,203.9773 c -25.68149,1.90524 -25.52063,19.01275 -30.8888,39.61012 -6.29028,18.54189 -6.45165,39.26466 0.37953,57.68319 15.74523,10.40516 38.00388,6.68329 54.29519,4.6621 17.46257,-10.55735 13.48183,-34.69112 16.01213,-52.10311 -0.34225,-16.85312 5.43006,-40.11812 -14.62807,-47.81569 -2.5157,-1.42747 -18.16527,-1.53452 -25.16998,-2.03661 z"
     id="Pecs-1" />
  <path
     style="fill:#ff0000;stroke:#000000;stroke-width:1px;stroke-linecap:butt;stroke-linejoin:miter;stroke-opacity:1"
     d="m 261.00495,202.73768 c 25.68149,1.90524 25.52063,19.01275 30.8888,39.61012 6.29028,18.54189 6.45165,39.26466 -0.37953,57.68319 -15.74523,10.40516 -38.00388,6.68329 -54.29519,4.6621 -17.46257,-10.55735 -13.48183,-34.69112 -16.01213,-52.10311 0.34225,-16.85312 -5.43006,-40.11812 14.62807,-47.81569 2.5157,-1.42747 18.16527,-1.53452 25.16998,-2.03661 z"
     id="Pecs-2" />
  <path
     style="fill:#ff0000;stroke:#000000;stroke-width:1px;stroke-linecap:butt;stroke-linejoin:miter;stroke-opacity:1"
     d="m 179.37136,149.77191 c -19.30576,14.36981 -43.61865,18.24854 -66.34722,24.17352 -15.797151,12.63415 10.20347,19.37276 23.7101,16.20819 19.47944,-2.14067 41.27667,1.72955 48.68242,-18.21211 2.75331,-7.68358 1.07807,-17.40761 -6.0453,-22.1696 z"
     id="Shoulder-1" />
  <path
     style="fill:#ff0000;stroke:#000000;stroke-width:1px;stroke-linecap:butt;stroke-linejoin:miter;stroke-opacity:1"
     d="m 251.85949,148.93213 c 19.30576,14.36981 43.61865,18.24854 66.34722,24.17352 15.79715,12.63415 -10.20347,19.37276 -23.7101,16.20819 -19.47944,-2.14067 -41.27667,1.72955 -48.68242,-18.21211 -2.75331,-7.68358 -1.07807,-17.40761 6.0453,-22.1696 z"
     id="shoulder-2" />
  <path
     style="fill:#ff0000;stroke:#000000;stroke-width:1px;stroke-linecap:butt;stroke-linejoin:miter;stroke-opacity:1"
     d="m 160.76425,326.9003 c -4.69777,42.62753 -6.71562,83.58048 -2.80155,124.33754 22.57608,34.70564 75.65428,31.96592 108.89181,16.23862 21.51519,-33.03808 12.15875,-76.60234 13.82758,-116.34033 -2.94175,-34.90819 -35.12757,-21.96584 -64.59481,-22.86332 -12.43528,-0.56504 -40.80654,-5.35766 -55.32303,-1.37251 z"
     id="Core" />
  <path
     style="fill:#ff0000;stroke:#000000;stroke-width:1px;stroke-linecap:butt;stroke-linejoin:miter;stroke-opacity:1"
     d="m 138.67336,511.93048 c 19.02699,3.4206 41.08651,6.53867 56.86189,16.63657 5.49199,21.98202 -22.74288,16.86005 -35.80548,15.4422 -13.11391,-2.91899 -38.87618,-6.89144 -35.23181,-25.01356 1.84156,-6.12791 8.31599,-8.53459 14.1754,-7.06521 z"
     id="HipFlexors-1" />
  <path
     style="fill:#ff0000;stroke:#000000;stroke-width:1px;stroke-linecap:butt;stroke-linejoin:miter;stroke-opacity:1"
     d="m 293.83185,512.0442 c -19.02699,3.4206 -41.08651,6.53867 -56.86189,16.63657 -5.49199,21.98202 22.74288,16.86005 35.80548,15.4422 13.11391,-2.91899 38.87618,-6.89144 35.23181,-25.01356 -1.84156,-6.12791 -8.31599,-8.53459 -14.1754,-7.06521 z"
     id="HipFlexors-2" />
  <path
     style="fill:#ff0000;stroke:#000000;stroke-width:1px;stroke-linecap:butt;stroke-linejoin:miter;stroke-opacity:1"
     d="m 222.05565,526.5533 c -2.99128,5.73102 -1.25558,15.28824 3.47069,19.07333 7.36203,-0.9277 6.12339,-10.6955 4.69659,-15.91275 -0.36823,-3.48112 -6.42725,-8.04393 -8.16728,-3.16058 z"
     id="Adductors-2" />
  <path
     style="fill:#ff0000;stroke:#000000;stroke-width:1px;stroke-linecap:butt;stroke-linejoin:miter;stroke-opacity:1"
     d="m 209.84653,525.83457 c 2.99128,5.73102 1.25558,15.28824 -3.47069,19.07333 -7.36203,-0.9277 -6.12339,-10.6955 -4.69659,-15.91275 0.36823,-3.48112 6.42725,-8.04393 8.16728,-3.16058 z"
     id="Adductors-1" />
  <path
     style="fill:#ff0000;stroke:#000000;stroke-width:1px;stroke-linecap:butt;stroke-linejoin:miter;stroke-opacity:1"
     d="m 134.85473,552.00977 c -7.65583,37.40661 0.6745,79.17522 -7.92151,116.53145 -5.7054,33.06568 42.34685,51.26784 47.70633,12.78553 4.89036,-35.89654 16.04291,-75.36792 6.39752,-110.4513 -8.26951,-15.19875 -26.89446,-28.8786 -46.18234,-18.86568 z"
     id="Quadriceps-1" />
  <path
     style="fill:#ff0000;stroke:#000000;stroke-width:1px;stroke-linecap:butt;stroke-linejoin:miter;stroke-opacity:1"
     d="m 291.72638,551.36332 c 7.65583,37.40661 -0.6745,79.17522 7.92151,116.53145 5.7054,33.06568 -42.34685,51.26784 -47.70633,12.78553 -4.89036,-35.89654 -16.04291,-75.36792 -6.39752,-110.4513 8.26951,-15.19875 26.89446,-28.8786 46.18234,-18.86568 z"
     id="Quadriceps-2" />
  <path
     style="fill:#ff0000;stroke:#000000;stroke-width:0.721768px;stroke-linecap:butt;stroke-linejoin:miter;stroke-opacity:1"
     d="m 140.42766,737.08082 c -4.01844,19.88365 -2.6041,41.77758 -0.36021,62.10205 1.44502,13.91016 3.4443,27.70457 4.09858,41.85254 0.0957,9.74988 2.8381,19.13383 6.67415,25.34538 1.77795,3.10524 4.96454,4.26403 6.53558,-0.0167 1.66964,-3.9446 2.1172,-9.06676 1.85042,-13.98738 -0.0671,-28.34207 3.41175,-56.30181 2.93124,-84.662 -0.99484,-12.84402 -5.03056,-25.19911 -11.02538,-31.49099 -3.3381,-3.46263 -7.54345,-3.28712 -10.70438,0.85706 z"
     id="TibialisAnterior-1" />
  <path
     style="fill:#ff0000;stroke:#000000;stroke-width:0.740594px;stroke-linecap:butt;stroke-linejoin:miter;stroke-opacity:1"
     d="m 291.20647,737.06545 c 4.23078,19.88365 2.74172,41.77758 0.37924,62.10205 -1.52138,13.91016 -3.62631,27.70457 -4.31518,41.85254 -0.10075,9.74988 -2.98807,19.13383 -7.02683,25.34538 -1.87191,3.10524 -5.22689,4.26403 -6.88095,-0.0167 -1.75787,-3.9446 -2.22909,-9.06676 -1.94822,-13.98738 0.0707,-28.34207 -3.59202,-56.30181 -3.08612,-84.662 1.0474,-12.84402 5.29639,-25.19911 11.608,-31.49099 3.51451,-3.46263 7.94209,-3.28712 11.27006,0.85706 z"
     id="TibialisAnterior-2" />
  <path
     style="fill:#ff0000;stroke:#000000;stroke-width:1px;stroke-linecap:butt;stroke-linejoin:miter;stroke-opacity:1"
     d="m 172.93013,907.33448 c 2.25958,-13.70741 -18.3195,-24.41881 -27.47485,-13.47936 -6.61786,9.72914 6.56497,17.45677 15.24901,16.99543 4.14986,-0.2642 9.09106,-0.35684 12.22584,-3.51607 z"
     id="Ankles-1" />
  <path
     style="fill:#ff0000;stroke:#000000;stroke-width:1px;stroke-linecap:butt;stroke-linejoin:miter;stroke-opacity:1"
     d="m 289.05589,896.64273 c -6.01576,-11.22071 -27.44791,-10.4031 -30.46056,2.66264 -0.80126,15.46199 25.79598,17.86519 29.40197,3.36983 0.27795,-2.02431 0.73769,-4.0157 1.05859,-6.03247 z"
     id="Ankles-2" />
</svg>
