<?xml version="1.0" encoding="UTF-8" standalone="no"?>
<svg
   viewBox="0 0 793.7008 1122.5197"
   height="297mm"
   width="210mm"
   version="1.1"
   id="svg3336"
   sodipodi:docname="front-inkscape.svg"
   inkscape:version="1.3.2 (091e20ef0f, 2023-11-25)"
   inkscape:export-filename="front.svg"
   inkscape:export-xdpi="121.35"
   inkscape:export-ydpi="121.35"
   xmlns:inkscape="http://www.inkscape.org/namespaces/inkscape"
   xmlns:sodipodi="http://sodipodi.sourceforge.net/DTD/sodipodi-0.dtd"
   xmlns="http://www.w3.org/2000/svg"
   xmlns:svg="http://www.w3.org/2000/svg"
   xmlns:rdf="http://www.w3.org/1999/02/22-rdf-syntax-ns#"
   xmlns:cc="http://creativecommons.org/ns#"
   xmlns:dc="http://purl.org/dc/elements/1.1/">
  <sodipodi:namedview
     pagecolor="#ffffff"
     bordercolor="#666666"
     borderopacity="1"
     objecttolerance="10"
     gridtolerance="10"
     guidetolerance="10"
     inkscape:pageopacity="0"
     inkscape:pageshadow="2"
     inkscape:window-width="1918"
     inkscape:window-height="1040"
     id="namedview33"
     showgrid="false"
     units="mm"
     inkscape:zoom="3.3673606"
     inkscape:cx="502.76765"
     inkscape:cy="591.11578"
     inkscape:window-x="1"
     inkscape:window-y="1"
     inkscape:window-maximized="1"
     inkscape:current-layer="svg3336"
     inkscape:document-rotation="0"
     inkscape:showpageshadow="2"
     inkscape:pagecheckerboard="0"
     inkscape:deskcolor="#d1d1d1"
     inkscape:document-units="mm" />
  <metadata
     id="metadata3342">
    <rdf:RDF>
      <cc:Work
         rdf:about="">
        <dc:format>image/svg+xml</dc:format>
        <dc:type
           rdf:resource="http://purl.org/dc/dcmitype/StillImage" />
      </cc:Work>
    </rdf:RDF>
  </metadata>
  <defs
     id="defs3340" />
  <path
     id="path42-4"
     style="fill:none;fill-rule:evenodd;stroke:#000000;stroke-width:0.90059006px;stroke-linecap:butt;stroke-linejoin:miter;stroke-opacity:1"
     d="M 407.01758 87.054688 C 398.35485 87.176708 389.34032 89.864997 382.14258 94.585938 C 372.6203 100.83151 366.65632 109.89542 363.42578 119.87109 C 360.32325 129.45143 363.75391 150.07813 363.75391 150.07812 C 363.75391 150.07812 360.09769 147.15205 357.84375 148.4375 C 352.32193 151.58665 354.85975 159.87312 355.875 165.51172 C 357.02865 171.91901 358.48273 181.11736 364.74023 182.91406 C 366.5805 183.44245 369.66602 179.95898 369.66602 179.95898 C 369.66602 179.95898 368.29231 186.09655 368.67969 189.1543 C 369.14982 192.86528 372.87348 197.89099 372.94922 201.63086 C 373.23165 215.56905 374.06892 231.14417 365.72461 235.12305 C 354.30038 240.57055 349.08462 242.80571 339.45703 246.28711 C 328.13247 250.38215 317.82314 248.95447 307.93359 253.18359 C 296.40601 258.11321 286.77611 264.00383 279.03906 273.86914 C 270.6195 284.60471 265.70077 297.01962 264.5918 311.95898 C 263.87805 321.57425 264.61517 331.30506 263.27734 340.85352 C 261.43555 353.99909 253.78837 358.55114 254.08398 379.59961 C 254.23771 390.54592 253.42773 412.43555 253.42773 412.43555 C 253.42773 412.43555 239.13484 443.54564 239.63672 468.91211 C 240.29066 501.96415 231.42773 567.74805 231.42773 567.74805 C 231.42773 567.74805 222.17053 574.16797 218.29297 578.25586 C 214.6884 582.05595 209.75586 590.07617 209.75586 590.07617 C 209.75586 590.07617 195.93506 603.90489 193.99414 613.71875 C 193.48938 616.27096 191.81248 619.73307 193.66602 621.59766 C 195.82799 623.77251 201.2992 623.9096 202.85938 621.26953 C 208.47994 611.75864 215.99414 606.16602 215.99414 606.16602 C 215.99414 606.16602 214.73879 631.25427 216.32227 652.13477 C 216.82504 658.76444 216.80852 669.08685 223.21875 670.85156 C 226.17947 672.23934 227.79651 661.60394 228.67188 651.1875 C 228.43973 663.73113 229.18014 678.23714 233.72656 679.7168 C 237.79762 681.04174 240.62109 668.88281 240.62109 668.88281 L 242.5918 627.17969 C 242.5918 627.17969 242.71155 654.94933 243.32812 667.76953 C 243.46764 670.67032 243.92763 676.15037 248.48438 674.79297 C 253.08614 672.95025 253.67828 668.46861 254.06641 664.99805 C 255.97588 647.92415 256.6755 624.98484 257.36719 626.19531 C 257.36719 626.19531 258.09686 648.5261 258.35156 659.35938 C 258.39796 661.332 261.30866 662.77564 263.27734 662.64258 C 265.75314 662.47524 269.11209 660.18535 268.85938 657.7168 C 267.44283 643.88039 269.1875 622.91211 269.1875 622.91211 C 269.1875 622.91211 272.86024 604.54878 272.14258 595.33008 C 271.78196 590.69786 269.09802 586.47872 268.53125 581.86719 C 267.7701 575.67406 267.78727 569.29733 268.85938 563.15039 C 273.76572 535.01981 290.47556 509.97195 296.44141 482.04688 C 300.62134 462.4814 298.25293 441.9356 302.02344 422.28711 C 304.58207 408.95392 313.51563 383.21289 313.51562 383.21289 C 313.51562 383.21289 324.56393 411.89514 327.63477 426.88281 C 330.03948 438.61937 331.18737 450.69645 330.91992 462.67383 C 330.73988 470.73645 327.84845 478.58275 327.63477 486.64453 C 327.46016 493.2321 328.28284 501.47109 327.30664 507.98828 C 325.99694 516.73199 320.75732 522.98341 319.42578 530.97266 C 318.25618 537.99025 320.14681 545.23866 319.42578 552.31641 C 317.50045 571.2157 310.42315 589.30345 307.93359 608.13672 C 305.53393 626.29004 305.66374 644.68451 306.62109 662.9707 C 307.91464 687.67836 315.24833 711.60175 316.80078 736.19531 C 317.37313 745.26245 317.00996 754.38005 316.4707 763.44922 C 316.10479 769.60275 314.50195 781.83594 314.50195 781.83594 L 315.81445 798.91016 C 315.81445 798.91016 307.37969 829.53717 307.60547 845.20898 C 308.18834 885.66788 326.60305 924.00461 332.23242 964.07422 C 332.84322 968.42192 333.2168 977.20898 333.2168 977.20898 C 333.2168 977.20898 330.10302 983.37717 329.93359 986.73047 C 329.74068 990.54857 332.56055 997.89453 332.56055 997.89453 L 333.2168 1013.3281 C 333.2168 1013.3281 324.21158 1028.3157 320.74023 1036.3125 C 319.22419 1039.805 317.42671 1043.3528 317.12891 1047.1484 C 316.76437 1051.7946 317.19529 1056.8476 319.42578 1060.9395 C 320.20453 1062.3682 323.03906 1064.2227 323.03906 1064.2227 C 323.03906 1064.2227 322.70565 1066.2656 323.36719 1066.8496 C 324.68005 1068.0086 328.62109 1066.8496 328.62109 1066.8496 C 328.62109 1066.8496 329.8985 1068.7868 330.91992 1069.1484 C 332.8911 1069.8463 337.1582 1068.4922 337.1582 1068.4922 C 337.1582 1068.4922 340.27536 1070.8956 342.08398 1070.7891 C 344.78258 1070.6301 348.97852 1066.5215 348.97852 1066.5215 C 348.97852 1066.5215 351.44897 1070.7054 353.57617 1071.1191 C 357.42754 1071.8682 361.73152 1069.3865 364.41211 1066.5215 C 366.23309 1064.5752 366.08826 1061.4588 367.03906 1058.9688 C 368.56181 1054.981 371.38387 1050.8778 371.96289 1047.1484 C 372.94102 1040.8483 368.45595 1032.5289 368.02344 1028.4316 C 367.08929 1019.5821 370.32227 1001.8359 370.32227 1001.8359 C 370.32227 1001.8359 374.74738 990.82732 373.60547 987.38672 C 371.20075 980.14132 368.02344 969.98437 368.02344 969.98438 C 368.02344 969.98438 364.58683 949.026 364.74023 938.46289 C 365.11221 912.84705 374.73663 888.05498 374.91797 862.2832 C 375.03604 845.5035 366.07199 823.8813 369.33594 812.04492 C 378.725 777.99639 379.1875 762.46289 379.1875 762.46289 C 379.1875 762.46289 385.23847 751.40883 385.09766 738.16406 C 384.85927 715.7422 392.97852 692.52344 392.97852 692.52344 L 405.78516 641.95703 L 407.09766 628.49414 L 406.44141 616.01562 L 408.33008 615.97461 L 410.38086 616.01562 L 409.72461 628.49414 L 411.03906 641.95703 L 423.84375 692.52344 C 423.84375 692.52344 431.963 715.74416 431.72461 738.16602 C 431.5838 751.41079 437.63477 762.46289 437.63477 762.46289 C 437.63477 762.46289 438.09727 777.9964 447.48633 812.04492 C 450.75028 823.88131 441.78623 845.50351 441.9043 862.2832 C 442.08564 888.05498 451.71005 912.84705 452.08203 938.46289 C 452.23543 949.026 448.79883 969.98438 448.79883 969.98438 C 448.79883 969.98438 445.62152 980.14132 443.2168 987.38672 C 442.07489 990.82732 446.5 1001.8359 446.5 1001.8359 C 446.5 1001.8359 449.73298 1019.5821 448.79883 1028.4316 C 448.36632 1032.5289 443.88124 1040.8483 444.85938 1047.1484 C 445.4384 1050.8778 448.26045 1054.981 449.7832 1058.9688 C 450.734 1061.4588 450.58918 1064.5752 452.41016 1066.5215 C 455.09075 1069.3865 459.39473 1071.8682 463.24609 1071.1191 C 465.3733 1070.7054 467.84375 1066.5215 467.84375 1066.5215 C 467.84375 1066.5215 472.03968 1070.6301 474.73828 1070.7891 C 476.5469 1070.8956 479.66406 1068.4922 479.66406 1068.4922 C 479.66406 1068.4922 483.93116 1069.8463 485.90234 1069.1484 C 486.92376 1068.7868 488.20117 1066.8496 488.20117 1066.8496 C 488.20117 1066.8496 492.14222 1068.0086 493.45508 1066.8496 C 494.11661 1066.2656 493.7832 1064.2227 493.7832 1064.2227 C 493.7832 1064.2227 496.61773 1062.3682 497.39648 1060.9395 C 499.62696 1056.8476 500.0579 1051.7946 499.69336 1047.1484 C 499.39556 1043.3528 497.59807 1039.805 496.08203 1036.3125 C 492.61068 1028.3157 483.60547 1013.3281 483.60547 1013.3281 L 484.26172 997.89453 C 484.26172 997.89453 487.08158 990.54857 486.88867 986.73047 C 486.71924 983.37717 483.60547 977.20898 483.60547 977.20898 C 483.60547 977.20898 483.97903 968.42192 484.58984 964.07422 C 490.2192 924.00461 508.63393 885.66787 509.2168 845.20898 C 509.44258 829.53716 501.00781 798.91016 501.00781 798.91016 L 502.32031 781.83594 C 502.32031 781.83594 500.71746 769.60275 500.35156 763.44922 C 499.8123 754.38005 499.45109 745.26245 500.02344 736.19531 C 501.57588 711.60175 508.90763 687.67835 510.20117 662.9707 C 511.15853 644.68451 511.28834 626.29004 508.88867 608.13672 C 506.39912 589.30345 499.3218 571.21569 497.39648 552.31641 C 496.67545 545.23866 498.56607 537.99025 497.39648 530.97266 C 496.06494 522.98341 490.82533 516.73199 489.51562 507.98828 C 488.53942 501.47109 489.36211 493.2321 489.1875 486.64453 C 488.97382 478.58274 486.08238 470.73645 485.90234 462.67383 C 485.63489 450.69644 486.78279 438.61937 489.1875 426.88281 C 492.25834 411.89514 503.30664 383.21289 503.30664 383.21289 C 503.30664 383.21289 512.24021 408.95392 514.79883 422.28711 C 518.56935 441.93559 516.20093 462.4814 520.38086 482.04688 C 525.36321 505.3684 537.83404 526.68517 544.66992 549.46484 C 544.67347 549.47667 544.6781 549.48818 544.68164 549.5 C 546.01508 553.9498 547.14889 558.4523 547.94922 563.04102 C 549.02133 569.18796 549.03849 575.56468 548.27734 581.75781 C 547.71057 586.36934 545.02664 590.58848 544.66602 595.2207 C 543.94836 604.4394 547.62109 622.80273 547.62109 622.80273 C 547.62109 622.80273 549.36577 643.77101 547.94922 657.60742 C 547.69651 660.07597 551.05545 662.36586 553.53125 662.5332 C 555.49993 662.66626 558.41063 661.22262 558.45703 659.25 C 558.71173 648.41673 559.44141 626.08594 559.44141 626.08594 C 560.1331 624.87547 560.83272 647.81477 562.74219 664.88867 C 563.13032 668.35923 563.72246 672.84087 568.32422 674.68359 C 572.88097 676.04099 573.34095 670.56095 573.48047 667.66016 C 574.09704 654.83996 574.2168 627.07031 574.2168 627.07031 L 576.1875 668.77344 C 576.1875 668.77344 579.01097 680.93236 583.08203 679.60742 C 587.62845 678.12776 588.36887 663.62176 588.13672 651.07812 C 589.01209 661.49456 590.62912 672.12997 593.58984 670.74219 C 600.00007 668.97748 599.98356 658.65506 600.48633 652.02539 C 602.06981 631.14489 600.81445 606.05664 600.81445 606.05664 C 600.81445 606.05664 608.32866 611.64927 613.94922 621.16016 C 615.5094 623.80023 620.98061 623.66313 623.14258 621.48828 C 624.99612 619.62369 623.31921 616.16158 622.81445 613.60938 C 620.87353 603.79551 607.05273 589.9668 607.05273 589.9668 C 607.05273 589.9668 602.12019 581.94657 598.51562 578.14648 C 594.63806 574.05859 585.38086 567.63867 585.38086 567.63867 C 585.38086 567.63867 584.33836 559.71863 583.04102 548.66211 C 580.46525 526.69093 576.75208 490.82038 577.18555 468.91211 C 577.68743 443.54564 563.39453 412.43555 563.39453 412.43555 C 563.39453 412.43555 562.58455 390.54592 562.73828 379.59961 C 563.03389 358.55114 555.38671 353.99909 553.54492 340.85352 C 552.20711 331.30506 552.94422 321.57425 552.23047 311.95898 C 551.1215 297.01962 546.20276 284.60471 537.7832 273.86914 C 530.04614 264.00382 520.41626 258.11321 508.88867 253.18359 C 498.99913 248.95447 488.68979 250.38214 477.36523 246.28711 C 467.73764 242.80571 462.52189 240.57055 451.09766 235.12305 C 442.75335 231.14417 443.59061 215.56904 443.87305 201.63086 C 443.94875 197.89099 447.67245 192.86527 448.14258 189.1543 C 448.52996 186.09655 447.1582 179.95898 447.1582 179.95898 C 447.1582 179.95898 450.24176 183.44245 452.08203 182.91406 C 458.33953 181.11736 459.79361 171.91901 460.94727 165.51172 C 461.96252 159.87311 464.50034 151.58664 458.97852 148.4375 C 456.72458 147.15205 453.06836 150.07812 453.06836 150.07812 C 453.06836 150.07812 456.49901 129.45143 453.39648 119.87109 C 450.16594 109.89542 444.20197 100.83151 434.67969 94.585938 C 427.48195 89.864998 416.57289 86.920107 407.01758 87.054688 z "
     inkscape:label="outline" />
  <path
     style="fill:#ff0000;stroke:#000000;stroke-width:1px;stroke-linecap:butt;stroke-linejoin:miter;stroke-opacity:1"
     d="m 375.97415,184.89896 c -1.44818,11.52076 -1.11756,26.76224 -0.53891,39.73398 5.01649,12.1147 20.46989,7.17145 30.6237,8.05333 10.01626,0.12736 32.91647,5.00427 32.61517,-10.34841 2.63167,-9.96462 2.1078,-22.61803 -1.4486,-33.85134 -6.25578,-9.80628 -20.28256,-4.51847 -30.04207,-5.53675 -12.41208,0.25014 -28.89885,-0.96499 -31.20929,1.94919 z"
     id="Neck-1"
     sodipodi:nodetypes="ccccccc"
     inkscape:label="neck" />
  <path
     id="Biceps-2"
     style="fill:#ff0000;stroke:#000000;stroke-width:1px;stroke-linecap:butt;stroke-linejoin:miter;stroke-opacity:1"
     d="m 513.07416,384.82626 c -0.68077,18.71768 4.15256,46.09201 9.8939,68.51321 5.98628,19.24802 23.93213,37.9945 40.65287,23.06233 12.77949,-17.12084 3.4904,-39.66818 -0.80316,-58.20777 -6.62954,-15.66279 -12.85198,-40.48009 -34.6637,-38.22145 -5.48304,0.17265 -11.41204,0.48 -15.07991,4.85368 z"
     sodipodi:nodetypes="cccccc"
     inkscape:label="biceps" />
  <path
     id="Biceps-1"
     style="fill:#ff0000;stroke:#000000;stroke-width:1px;stroke-linecap:butt;stroke-linejoin:miter;stroke-opacity:1"
     d="m 303.16345,385.64837 c 0.68077,18.71768 -4.15256,46.09201 -9.8939,68.51321 -5.98628,19.24802 -23.93213,37.9945 -40.65287,23.06233 -12.77949,-17.12084 -3.4904,-39.66818 0.80316,-58.20777 6.62954,-15.66279 12.85198,-40.48009 34.6637,-38.22145 5.48304,0.17265 11.41204,0.48 15.07991,4.85368 z"
     sodipodi:nodetypes="cccccc"
     inkscape:label="biceps" />
  <path
     style="fill:#ff0000;stroke:#000000;stroke-width:1px;stroke-linecap:butt;stroke-linejoin:miter;stroke-opacity:1"
     d="m 249.98048,487.3499 c -10.73124,6.73018 -12.53526,45.24669 -13.18408,68.72414 -1.33572,9.37427 0.76199,19.35191 10.08138,19.50468 6.11732,0.20664 13.79385,-1.6541 16.82173,-7.50377 3.26566,-7.80947 -0.0482,-16.69918 3.45299,-24.50762 2.72318,-8.84066 6.73117,-17.19274 9.70074,-25.94177 3.07152,-9.15292 3.08412,-21.04669 -4.98134,-27.70079 -5.97514,-4.56857 -15.08998,-6.20651 -21.89142,-2.57487 z"
     id="WristFlexors-1"
     sodipodi:nodetypes="cccccccc" />
  <path
     style="fill:#ff0000;stroke:#000000;stroke-width:1px;stroke-linecap:butt;stroke-linejoin:miter;stroke-opacity:1"
     d="m 566.33493,486.91325 c 10.73124,6.73018 12.53526,45.24669 13.18408,68.72414 1.33572,9.37427 -0.76199,19.35191 -10.08138,19.50468 -6.11732,0.20664 -13.79385,-1.6541 -16.82173,-7.50377 -3.26566,-7.80947 0.0482,-16.69918 -3.45299,-24.50762 -2.72318,-8.84066 -6.73117,-17.19274 -9.70074,-25.94177 -3.07152,-9.15292 -3.08412,-21.04669 4.98134,-27.70079 5.97514,-4.56857 15.08998,-6.20651 21.89142,-2.57487 z"
     id="WristFlexors-2"
     sodipodi:nodetypes="cccccccc" />
  <path
     style="fill:#ff0000;stroke:#000000;stroke-width:1px;stroke-linecap:butt;stroke-linejoin:miter;stroke-opacity:1"
     d="m 368.55362,290.57724 c -25.68149,1.90524 -25.52063,19.01275 -30.8888,39.61012 -6.29028,18.54189 -6.45165,39.26466 0.37953,57.68319 15.74523,10.40516 38.00388,6.68329 54.29519,4.6621 17.46257,-10.55735 13.48183,-34.69112 16.01213,-52.10311 -0.34225,-16.85312 5.43006,-40.11812 -14.62807,-47.81569 -2.5157,-1.42747 -18.16527,-1.53452 -25.16998,-2.03661 z"
     id="Pecs-1"
     sodipodi:nodetypes="ccccccc" />
  <path
     style="fill:#ff0000;stroke:#000000;stroke-width:1px;stroke-linecap:butt;stroke-linejoin:miter;stroke-opacity:1"
     d="m 453.37147,289.33762 c 25.68149,1.90524 25.52063,19.01275 30.8888,39.61012 6.29028,18.54189 6.45165,39.26466 -0.37953,57.68319 -15.74523,10.40516 -38.00388,6.68329 -54.29519,4.6621 -17.46257,-10.55735 -13.48183,-34.69112 -16.01213,-52.10311 0.34225,-16.85312 -5.43006,-40.11812 14.62807,-47.81569 2.5157,-1.42747 18.16527,-1.53452 25.16998,-2.03661 z"
     id="Pecs-2"
     sodipodi:nodetypes="ccccccc" />
  <path
     style="fill:#ff0000;stroke:#000000;stroke-width:1px;stroke-linecap:butt;stroke-linejoin:miter;stroke-opacity:1"
     d="m 371.73788,236.37185 c -19.30576,14.36981 -43.61865,18.24854 -66.34722,24.17352 -15.79715,12.63415 10.20347,19.37276 23.7101,16.20819 19.47944,-2.14067 41.27667,1.72955 48.68242,-18.21211 2.75331,-7.68358 1.07807,-17.40761 -6.0453,-22.1696 z"
     id="Shoulders-1"
     sodipodi:nodetypes="ccccc"
     inkscape:label="Shoulders-1" />
  <path
     style="fill:#ff0000;stroke:#000000;stroke-width:1px;stroke-linecap:butt;stroke-linejoin:miter;stroke-opacity:1"
     d="m 444.22601,235.53207 c 19.30576,14.36981 43.61865,18.24854 66.34722,24.17352 15.79715,12.63415 -10.20347,19.37276 -23.7101,16.20819 -19.47944,-2.14067 -41.27667,1.72955 -48.68242,-18.21211 -2.75331,-7.68358 -1.07807,-17.40761 6.0453,-22.1696 z"
     id="Shoulders-2"
     sodipodi:nodetypes="ccccc" />
  <path
     style="fill:#ff0000;stroke:#000000;stroke-width:1px;stroke-linecap:butt;stroke-linejoin:miter;stroke-opacity:1"
     d="m 353.13077,413.50024 c -4.69777,42.62753 -6.71562,83.58048 -2.80155,124.33754 22.57608,34.70564 75.65428,31.96592 108.89181,16.23862 21.51519,-33.03808 12.15875,-76.60234 13.82758,-116.34033 -2.94175,-34.90819 -35.12757,-21.96584 -64.59481,-22.86332 -12.43528,-0.56504 -40.80654,-5.35766 -55.32303,-1.37251 z"
     id="Core-1"
     sodipodi:nodetypes="cccccc" />
  <path
     style="fill:#ff0000;stroke:#000000;stroke-width:1px;stroke-linecap:butt;stroke-linejoin:miter;stroke-opacity:1"
     d="m 331.03988,598.53042 c 19.02699,3.4206 41.08651,6.53867 56.86189,16.63657 5.49199,21.98202 -22.74288,16.86005 -35.80548,15.4422 -13.11391,-2.91899 -38.87618,-6.89144 -35.23181,-25.01356 1.84156,-6.12791 8.31599,-8.53459 14.1754,-7.06521 z"
     id="HipFlexors-1" />
  <path
     style="fill:#ff0000;stroke:#000000;stroke-width:1px;stroke-linecap:butt;stroke-linejoin:miter;stroke-opacity:1"
     d="m 486.19837,598.64414 c -19.02699,3.4206 -41.08651,6.53867 -56.86189,16.63657 -5.49199,21.98202 22.74288,16.86005 35.80548,15.4422 13.11391,-2.91899 38.87618,-6.89144 35.23181,-25.01356 -1.84156,-6.12791 -8.31599,-8.53459 -14.1754,-7.06521 z"
     id="HipFlexors-2" />
  <path
     style="fill:#ff0000;stroke:#000000;stroke-width:1px;stroke-linecap:butt;stroke-linejoin:miter;stroke-opacity:1"
     d="m 414.42217,613.15324 c -2.99128,5.73102 -1.25558,15.28824 3.47069,19.07333 7.36203,-0.9277 6.12339,-10.6955 4.69659,-15.91275 -0.36823,-3.48112 -6.42725,-8.04393 -8.16728,-3.16058 z"
     id="Adductors-2" />
  <path
     style="fill:#ff0000;stroke:#000000;stroke-width:1px;stroke-linecap:butt;stroke-linejoin:miter;stroke-opacity:1"
     d="m 402.21305,612.43451 c 2.99128,5.73102 1.25558,15.28824 -3.47069,19.07333 -7.36203,-0.9277 -6.12339,-10.6955 -4.69659,-15.91275 0.36823,-3.48112 6.42725,-8.04393 8.16728,-3.16058 z"
     id="Adductors-1" />
  <path
     style="fill:#ff0000;stroke:#000000;stroke-width:1px;stroke-linecap:butt;stroke-linejoin:miter;stroke-opacity:1"
     d="m 327.22125,638.60971 c -7.65583,37.40661 0.6745,79.17522 -7.92151,116.53145 -5.7054,33.06568 42.34685,51.26784 47.70633,12.78553 4.89036,-35.89654 16.04291,-75.36792 6.39752,-110.4513 -8.26951,-15.19875 -26.89446,-28.8786 -46.18234,-18.86568 z"
     id="Quadriceps-1"
     sodipodi:nodetypes="ccccc" />
  <path
     style="fill:#ff0000;stroke:#000000;stroke-width:1px;stroke-linecap:butt;stroke-linejoin:miter;stroke-opacity:1"
     d="m 484.0929,637.96326 c 7.65583,37.40661 -0.6745,79.17522 7.92151,116.53145 5.7054,33.06568 -42.34685,51.26784 -47.70633,12.78553 -4.89036,-35.89654 -16.04291,-75.36792 -6.39752,-110.4513 8.26951,-15.19875 26.89446,-28.8786 46.18234,-18.86568 z"
     id="Quadriceps-2"
     sodipodi:nodetypes="ccccc" />
  <path
     style="fill:#ff0000;stroke:#000000;stroke-width:0.721768px;stroke-linecap:butt;stroke-linejoin:miter;stroke-opacity:1"
     d="m 332.79418,823.68076 c -4.01844,19.88365 -2.6041,41.77758 -0.36021,62.10205 1.44502,13.91016 3.4443,27.70457 4.09858,41.85254 0.0957,9.74988 2.8381,19.13383 6.67415,25.34538 1.77795,3.10524 4.96454,4.26403 6.53558,-0.0167 1.66964,-3.9446 2.1172,-9.06676 1.85042,-13.98738 -0.0671,-28.34207 3.41175,-56.30181 2.93124,-84.662 -0.99484,-12.84402 -5.03056,-25.19911 -11.02538,-31.49099 -3.3381,-3.46263 -7.54345,-3.28712 -10.70438,0.85706 z"
     id="TibialisAnterior-1" />
  <path
     style="fill:#ff0000;stroke:#000000;stroke-width:0.740594px;stroke-linecap:butt;stroke-linejoin:miter;stroke-opacity:1"
     d="m 483.57299,823.66539 c 4.23078,19.88365 2.74172,41.77758 0.37924,62.10205 -1.52138,13.91016 -3.62631,27.70457 -4.31518,41.85254 -0.10075,9.74988 -2.98807,19.13383 -7.02683,25.34538 -1.87191,3.10524 -5.22689,4.26403 -6.88095,-0.0167 -1.75787,-3.9446 -2.22909,-9.06676 -1.94822,-13.98738 0.0707,-28.34207 -3.59202,-56.30181 -3.08612,-84.662 1.0474,-12.84402 5.29639,-25.19911 11.608,-31.49099 3.51451,-3.46263 7.94209,-3.28712 11.27006,0.85706 z"
     id="TibialisAnterior-2" />
  <path
     style="fill:#ff0000;stroke:#000000;stroke-width:1px;stroke-linecap:butt;stroke-linejoin:miter;stroke-opacity:1"
     d="m 365.29665,993.93442 c 2.25958,-13.70741 -18.3195,-24.41881 -27.47485,-13.47936 -6.61786,9.72914 6.56497,17.45677 15.24901,16.99543 4.14986,-0.2642 9.09106,-0.35684 12.22584,-3.51607 z"
     id="Ankles-1" />
  <path
     style="fill:#ff0000;stroke:#000000;stroke-width:1px;stroke-linecap:butt;stroke-linejoin:miter;stroke-opacity:1"
     d="m 481.42241,983.24267 c -6.01576,-11.22071 -27.44791,-10.4031 -30.46056,2.66264 -0.80126,15.46199 25.79598,17.86519 29.40197,3.36983 0.27795,-2.02431 0.73769,-4.0157 1.05859,-6.03247 z"
     id="Ankles-2" />
  <text
     xml:space="preserve"
     style="font-style:normal;font-variant:normal;font-weight:normal;font-stretch:normal;font-size:26.6667px;line-height:1.25;font-family:'Averia Serif Libre';-inkscape-font-specification:'Averia Serif Libre';letter-spacing:0px;word-spacing:0px;fill:#000000;fill-opacity:1;stroke:none"
     x="469.159"
     y="196.73622"
     id="text1"><tspan
       sodipodi:role="line"
       id="tspan1"
       x="469.159"
       y="196.73622"
       style="font-style:normal;font-variant:normal;font-weight:normal;font-stretch:normal;font-size:26.6667px;font-family:sans-serif;-inkscape-font-specification:sans-serif">Neck</tspan></text>
  <path
     style="fill:none;stroke:#000000;stroke-width:1px;stroke-linecap:butt;stroke-linejoin:miter;stroke-opacity:1;stroke-dasharray:2,1;stroke-dashoffset:0"
     d="m 441.25248,193.89516 28.18738,-6.32523"
     id="path1"
     sodipodi:nodetypes="cc" />
  <text
     xml:space="preserve"
     style="font-style:normal;font-variant:normal;font-weight:normal;font-stretch:normal;font-size:26.6667px;line-height:1.25;font-family:'Averia Serif Libre';-inkscape-font-specification:'Averia Serif Libre';letter-spacing:0px;word-spacing:0px;fill:#000000;fill-opacity:1;stroke:none"
     x="508.33392"
     y="244.98566"
     id="text2"><tspan
       sodipodi:role="line"
       id="tspan2"
       x="508.33392"
       y="244.98566"
       style="font-style:normal;font-variant:normal;font-weight:normal;font-stretch:normal;font-size:26.6667px;font-family:sans-serif;-inkscape-font-specification:sans-serif">Shoulders</tspan></text>
  <text
     xml:space="preserve"
     style="font-style:normal;font-variant:normal;font-weight:normal;font-stretch:normal;font-size:26.6667px;line-height:1.25;font-family:'Averia Serif Libre';-inkscape-font-specification:'Averia Serif Libre';letter-spacing:0px;word-spacing:0px;fill:#000000;fill-opacity:1;stroke:none"
     x="562.56769"
     y="292.13968"
     id="text3"><tspan
       sodipodi:role="line"
       id="tspan3"
       x="562.56769"
       y="292.13968"
       style="font-style:normal;font-variant:normal;font-weight:normal;font-stretch:normal;font-size:26.6667px;font-family:sans-serif;-inkscape-font-specification:sans-serif">Pecs</tspan></text>
  <text
     xml:space="preserve"
     style="font-style:normal;font-variant:normal;font-weight:normal;font-stretch:normal;font-size:26.6667px;line-height:1.25;font-family:'Averia Serif Libre';-inkscape-font-specification:'Averia Serif Libre';letter-spacing:0px;word-spacing:0px;fill:#000000;fill-opacity:1;stroke:none"
     x="576.54388"
     y="416.89694"
     id="text4"><tspan
       sodipodi:role="line"
       id="tspan4"
       x="576.54388"
       y="416.89694"
       style="font-style:normal;font-variant:normal;font-weight:normal;font-stretch:normal;font-size:26.6667px;font-family:sans-serif;-inkscape-font-specification:sans-serif">Biceps</tspan></text>
  <text
     xml:space="preserve"
     style="font-style:normal;font-variant:normal;font-weight:normal;font-stretch:normal;font-size:26.6667px;line-height:1.25;font-family:'Averia Serif Libre';-inkscape-font-specification:'Averia Serif Libre';letter-spacing:0px;word-spacing:0px;fill:#000000;fill-opacity:1;stroke:none"
     x="595.32886"
     y="510.65128"
     id="text5"><tspan
       sodipodi:role="line"
       id="tspan5"
       x="595.32886"
       y="510.65128"
       style="font-style:normal;font-variant:normal;font-weight:normal;font-stretch:normal;font-size:26.6667px;font-family:sans-serif;-inkscape-font-specification:sans-serif">Wrist</tspan></text>
  <text
     xml:space="preserve"
     style="font-style:normal;font-variant:normal;font-weight:normal;font-stretch:normal;font-size:26.6667px;line-height:1.25;font-family:'Averia Serif Libre';-inkscape-font-specification:'Averia Serif Libre';letter-spacing:0px;word-spacing:0px;fill:#000000;fill-opacity:1;stroke:none"
     x="380.89874"
     y="474.37766"
     id="text6"><tspan
       sodipodi:role="line"
       id="tspan6"
       x="380.89874"
       y="474.37766"
       style="font-style:normal;font-variant:normal;font-weight:normal;font-stretch:normal;font-size:26.6667px;font-family:sans-serif;-inkscape-font-specification:sans-serif">Core</tspan></text>
  <text
     xml:space="preserve"
     style="font-style:normal;font-variant:normal;font-weight:normal;font-stretch:normal;font-size:26.6667px;line-height:1.25;font-family:'Averia Serif Libre';-inkscape-font-specification:'Averia Serif Libre';letter-spacing:0px;word-spacing:0px;fill:#000000;fill-opacity:1;stroke:none"
     x="272.59891"
     y="581.08606"
     id="text7"><tspan
       sodipodi:role="line"
       id="tspan7"
       x="272.59891"
       y="581.08606"
       style="font-style:normal;font-variant:normal;font-weight:normal;font-stretch:normal;font-size:26.6667px;font-family:sans-serif;-inkscape-font-specification:sans-serif">Hip Flexors</tspan></text>
  <text
     xml:space="preserve"
     style="font-style:normal;font-variant:normal;font-weight:normal;font-stretch:normal;font-size:26.6667px;line-height:1.25;font-family:'Averia Serif Libre';-inkscape-font-specification:'Averia Serif Libre';letter-spacing:0px;word-spacing:0px;fill:#000000;fill-opacity:1;stroke:none"
     x="433.94815"
     y="588.25922"
     id="text8"><tspan
       sodipodi:role="line"
       id="tspan8"
       x="433.94815"
       y="588.25922"
       style="font-style:normal;font-variant:normal;font-weight:normal;font-stretch:normal;font-size:26.6667px;font-family:sans-serif;-inkscape-font-specification:sans-serif">Adductors</tspan></text>
  <text
     xml:space="preserve"
     style="font-style:normal;font-variant:normal;font-weight:normal;font-stretch:normal;font-size:26.6667px;line-height:1.25;font-family:'Averia Serif Libre';-inkscape-font-specification:'Averia Serif Libre';letter-spacing:0px;word-spacing:0px;fill:#000000;fill-opacity:1;stroke:none"
     x="513.70306"
     y="719.00568"
     id="text9"><tspan
       sodipodi:role="line"
       id="tspan9"
       x="513.70306"
       y="719.00568"
       style="font-style:normal;font-variant:normal;font-weight:normal;font-stretch:normal;font-size:26.6667px;font-family:sans-serif;-inkscape-font-specification:sans-serif">Quads</tspan></text>
  <text
     xml:space="preserve"
     style="font-style:normal;font-variant:normal;font-weight:normal;font-stretch:normal;font-size:26.6667px;line-height:1.25;font-family:'Averia Serif Libre';-inkscape-font-specification:'Averia Serif Libre';letter-spacing:0px;word-spacing:0px;fill:#000000;fill-opacity:1;stroke:none"
     x="535.67169"
     y="904.67969"
     id="text10"><tspan
       sodipodi:role="line"
       id="tspan10"
       x="535.67169"
       y="904.67969"
       style="font-style:normal;font-variant:normal;font-weight:normal;font-stretch:normal;font-size:26.6667px;font-family:sans-serif;-inkscape-font-specification:sans-serif">Tibialis</tspan><tspan
       sodipodi:role="line"
       x="535.67169"
       y="938.87244"
       style="font-style:normal;font-variant:normal;font-weight:normal;font-stretch:normal;font-size:26.6667px;font-family:sans-serif;-inkscape-font-specification:sans-serif"
       id="tspan12">Anterior</tspan></text>
  <text
     xml:space="preserve"
     style="font-style:normal;font-variant:normal;font-weight:normal;font-stretch:normal;font-size:26.6667px;line-height:1.25;font-family:'Averia Serif Libre';-inkscape-font-specification:'Averia Serif Libre';letter-spacing:0px;word-spacing:0px;fill:#000000;fill-opacity:1;stroke:none"
     x="496.64905"
     y="997.98578"
     id="text11"><tspan
       sodipodi:role="line"
       id="tspan11"
       x="496.64905"
       y="997.98578"
       style="font-style:normal;font-variant:normal;font-weight:normal;font-stretch:normal;font-size:26.6667px;font-family:sans-serif;-inkscape-font-specification:sans-serif">Ankles</tspan></text>
  <path
     style="fill:none;stroke:#000000;stroke-width:1px;stroke-linecap:butt;stroke-linejoin:miter;stroke-dasharray:2, 1;stroke-dashoffset:0;stroke-opacity:1"
     d="m 484.4467,251.07984 23.22532,-15.10942"
     id="path12"
     sodipodi:nodetypes="cc" />
  <path
     style="fill:none;stroke:#000000;stroke-width:1px;stroke-linecap:butt;stroke-linejoin:miter;stroke-dasharray:2, 1;stroke-dashoffset:0;stroke-opacity:1"
     d="m 485.4012,312.23148 74.6736,-28.26282"
     id="path13"
     sodipodi:nodetypes="cc" />
  <path
     style="fill:none;stroke:#000000;stroke-width:1px;stroke-linecap:butt;stroke-linejoin:miter;stroke-dasharray:2, 1;stroke-dashoffset:0;stroke-opacity:1"
     d="m 561.20034,409.15015 15.83816,-3.4913"
     id="path14"
     sodipodi:nodetypes="cc" />
  <path
     style="fill:none;stroke:#000000;stroke-width:1px;stroke-linecap:butt;stroke-linejoin:miter;stroke-dasharray:2, 1;stroke-dashoffset:0;stroke-opacity:1"
     d="m 579.03828,509.40136 18.64107,-4.01681"
     id="path15"
     sodipodi:nodetypes="cc" />
  <path
     style="fill:none;stroke:#000000;stroke-width:1px;stroke-linecap:butt;stroke-linejoin:miter;stroke-dasharray:2, 1;stroke-dashoffset:0;stroke-opacity:1"
     d="m 347.2343,597.57698 -0.89562,-11.78266"
     id="path16"
     sodipodi:nodetypes="cc" />
  <path
     style="fill:none;stroke:#000000;stroke-width:1px;stroke-linecap:butt;stroke-linejoin:miter;stroke-dasharray:2, 1;stroke-dashoffset:0;stroke-opacity:1"
     d="m 420.3187,608.93326 15.14073,-17.62372"
     id="path17"
     sodipodi:nodetypes="cc" />
  <path
     style="fill:none;stroke:#000000;stroke-width:1px;stroke-linecap:butt;stroke-linejoin:miter;stroke-dasharray:2, 1;stroke-dashoffset:0;stroke-opacity:1"
     d="m 489.76852,887.35234 36.48576,7.45433"
     id="path18"
     sodipodi:nodetypes="cc" />
  <path
     style="fill:none;stroke:#000000;stroke-width:1px;stroke-linecap:butt;stroke-linejoin:miter;stroke-dasharray:2, 1;stroke-dashoffset:0;stroke-opacity:1"
     d="m 490.58065,706.88917 22.27398,2.39709"
     id="path19"
     sodipodi:nodetypes="cc" />
  <path
     style="fill:none;stroke:#000000;stroke-width:1px;stroke-linecap:butt;stroke-linejoin:miter;stroke-dasharray:2, 1;stroke-dashoffset:0;stroke-opacity:1"
     d="m 483.83428,989.33691 11.94272,0.14233"
     id="path20"
     sodipodi:nodetypes="cc" />
</svg>
